<svg width="256" height="256" viewBox="0 0 24 24" xmlns="http://www.w3.org/2000/svg"><rect x="0" y="0" width="24" height="24" rx="8" fill="none"/><svg xmlns="http://www.w3.org/2000/svg" viewBox="0 0 24 24" fill="#00a3e0" x="0" y="0" width="24" height="24"><path fill="none" stroke="#00a3e0" stroke-linecap="round" stroke-linejoin="round" stroke-width="2" d="M4 7h3a1 1 0 0 0 1-1V5a2 2 0 0 1 4 0v1a1 1 0 0 0 1 1h3a1 1 0 0 1 1 1v3a1 1 0 0 0 1 1h1a2 2 0 0 1 0 4h-1a1 1 0 0 0-1 1v3a1 1 0 0 1-1 1h-3a1 1 0 0 1-1-1v-1a2 2 0 0 0-4 0v1a1 1 0 0 1-1 1H4a1 1 0 0 1-1-1v-3a1 1 0 0 1 1-1h1a2 2 0 0 0 0-4H4a1 1 0 0 1-1-1V8a1 1 0 0 1 1-1"/></svg></svg>