<svg xmlns="http://www.w3.org/2000/svg" xmlns:xlink="http://www.w3.org/1999/xlink" width="500" zoomAndPan="magnify" viewBox="0 0 375 374.999991" height="500" preserveAspectRatio="xMidYMid meet" version="1.0"><defs><g/></defs><rect x="-37.5" width="450" fill="#ffffff" y="-37.499999" height="449.999989" fill-opacity="1"/><rect x="-37.5" width="450" fill="#00a3e0" y="-37.499999" height="449.999989" fill-opacity="1"/><g fill="#ffffff" fill-opacity="1"><g transform="translate(42.791498, 171.749989)"><g><path d="M 7.421875 -128.984375 L 66.75 -128.984375 C 68.46875 -128.984375 69.328125 -128.125 69.328125 -126.40625 L 69.328125 -110.28125 C 69.328125 -108.5625 68.46875 -107.703125 66.75 -107.703125 L 48.046875 -107.703125 L 48.046875 -2.578125 C 48.046875 -0.859375 47.1875 0 45.46875 0 L 28.703125 0 C 26.984375 0 26.125 -0.859375 26.125 -2.578125 L 26.125 -107.703125 L 7.421875 -107.703125 C 5.703125 -107.703125 4.84375 -108.5625 4.84375 -110.28125 L 4.84375 -126.40625 C 4.84375 -128.125 5.703125 -128.984375 7.421875 -128.984375 Z M 7.421875 -128.984375 "/></g></g></g><g fill="#ffffff" fill-opacity="1"><g transform="translate(116.955685, 171.749989)"><g><path d="M 72.390625 -126.40625 L 72.390625 -110.28125 C 72.390625 -108.457031 71.53125 -107.546875 69.8125 -107.546875 L 29.5 -107.546875 L 29.5 -75.296875 L 60.296875 -75.296875 C 62.015625 -75.296875 62.875 -74.382812 62.875 -72.5625 L 62.875 -56.59375 C 62.875 -54.769531 62.015625 -53.859375 60.296875 -53.859375 L 29.5 -53.859375 L 29.5 -21.28125 L 69.8125 -21.28125 C 71.53125 -21.28125 72.390625 -20.421875 72.390625 -18.703125 L 72.390625 -2.578125 C 72.390625 -0.859375 71.53125 0 69.8125 0 L 10.484375 0 C 8.867188 0 8.0625 -0.859375 8.0625 -2.578125 L 8.0625 -126.40625 C 8.0625 -128.125 8.867188 -128.984375 10.484375 -128.984375 L 69.8125 -128.984375 C 71.53125 -128.984375 72.390625 -128.125 72.390625 -126.40625 Z M 72.390625 -126.40625 "/></g></g></g><g fill="#ffffff" fill-opacity="1"><g transform="translate(42.791498, 332.249978)"><g><path d="M 8.0625 -2.578125 L 8.0625 -126.40625 C 8.0625 -128.125 8.921875 -128.984375 10.640625 -128.984375 L 49.34375 -128.984375 C 56.96875 -128.984375 62.742188 -127.019531 66.671875 -123.09375 C 70.597656 -119.175781 72.5625 -113.398438 72.5625 -105.765625 L 72.5625 -66.421875 C 72.5625 -58.898438 70.597656 -53.148438 66.671875 -49.171875 C 62.742188 -45.191406 56.96875 -43.203125 49.34375 -43.203125 L 29.984375 -43.203125 L 29.984375 -2.578125 C 29.984375 -0.859375 29.125 0 27.40625 0 L 10.640625 0 C 8.921875 0 8.0625 -0.859375 8.0625 -2.578125 Z M 29.984375 -64.5 L 44.171875 -64.5 C 48.472656 -64.5 50.625 -66.644531 50.625 -70.9375 L 50.625 -101.25 C 50.625 -105.550781 48.472656 -107.703125 44.171875 -107.703125 L 29.984375 -107.703125 Z M 29.984375 -64.5 "/></g></g></g><g fill="#ffffff" fill-opacity="1"><g transform="translate(123.40475, 332.249978)"><g><path d="M 85.78125 0 L 68.6875 0 C 67.289062 0 66.429688 -0.75 66.109375 -2.25 L 61.59375 -25.796875 L 32.890625 -25.796875 L 28.53125 -2.25 C 28.21875 -0.75 27.359375 0 25.953125 0 L 8.703125 0 C 6.765625 0 6.066406 -0.910156 6.609375 -2.734375 L 33.375 -126.734375 C 33.695312 -128.234375 34.609375 -128.984375 36.109375 -128.984375 L 58.53125 -128.984375 C 60.03125 -128.984375 60.941406 -128.234375 61.265625 -126.734375 L 88.03125 -2.734375 C 88.351562 -0.910156 87.601562 0 85.78125 0 Z M 57.5625 -44.5 L 47.234375 -100.765625 L 36.921875 -44.5 Z M 57.5625 -44.5 "/></g></g></g><g fill="#ffffff" fill-opacity="1"><g transform="translate(217.883481, 332.249978)"><g><path d="M 65.78125 -128.984375 L 81.90625 -128.984375 C 83.09375 -128.984375 83.953125 -128.660156 84.484375 -128.015625 C 85.023438 -127.367188 85.023438 -126.457031 84.484375 -125.28125 L 54.984375 -53.53125 L 54.984375 -3.21875 C 54.984375 -1.070312 53.90625 0 51.75 0 L 36.28125 0 C 34.125 0 33.046875 -1.070312 33.046875 -3.21875 L 33.046875 -53.53125 L 3.546875 -125.28125 C 3.117188 -126.457031 3.144531 -127.367188 3.625 -128.015625 C 4.113281 -128.660156 4.945312 -128.984375 6.125 -128.984375 L 22.25 -128.984375 C 24.070312 -128.984375 25.304688 -128.125 25.953125 -126.40625 L 44.015625 -80.140625 L 62.078125 -126.40625 C 62.722656 -128.125 63.957031 -128.984375 65.78125 -128.984375 Z M 65.78125 -128.984375 "/></g></g></g></svg>