<svg xmlns="http://www.w3.org/2000/svg" xmlns:xlink="http://www.w3.org/1999/xlink" width="1000" zoomAndPan="magnify" viewBox="0 0 375 374.999991" height="1000" preserveAspectRatio="xMidYMid meet" version="1.0"><defs><g/><clipPath id="3733d57d5a"><path d="M 37.5 112.5 L 337.5 112.5 L 337.5 262.5 L 37.5 262.5 Z M 37.5 112.5 " clip-rule="nonzero"/></clipPath><clipPath id="4a6d67ce28"><path d="M 262.5 112.5 C 303.921875 112.5 337.5 146.078125 337.5 187.5 C 337.5 228.921875 303.921875 262.5 262.5 262.5 L 112.5 262.5 C 71.078125 262.5 37.5 228.921875 37.5 187.5 C 37.5 146.078125 71.078125 112.5 112.5 112.5 Z M 262.5 112.5 " clip-rule="nonzero"/></clipPath><linearGradient x1="256" gradientTransform="matrix(0.585937, 0, 0, 0.585937, 37.500004, 112.499997)" y1="-0.000008" x2="256" gradientUnits="userSpaceOnUse" y2="255.999981" id="0e71978814"><stop stop-opacity="1" stop-color="rgb(30.198669%, 66.699219%, 90.99884%)" offset="0"/><stop stop-opacity="1" stop-color="rgb(30.177307%, 66.53595%, 90.847778%)" offset="0.0078125"/><stop stop-opacity="1" stop-color="rgb(30.134583%, 66.210938%, 90.544128%)" offset="0.015625"/><stop stop-opacity="1" stop-color="rgb(30.091858%, 65.885925%, 90.240479%)" offset="0.0234375"/><stop stop-opacity="1" stop-color="rgb(30.049133%, 65.560913%, 89.938354%)" offset="0.03125"/><stop stop-opacity="1" stop-color="rgb(30.006409%, 65.235901%, 89.634705%)" offset="0.0390625"/><stop stop-opacity="1" stop-color="rgb(29.962158%, 64.910889%, 89.331055%)" offset="0.046875"/><stop stop-opacity="1" stop-color="rgb(29.919434%, 64.585876%, 89.028931%)" offset="0.0546875"/><stop stop-opacity="1" stop-color="rgb(29.876709%, 64.260864%, 88.725281%)" offset="0.0625"/><stop stop-opacity="1" stop-color="rgb(29.833984%, 63.935852%, 88.421631%)" offset="0.0703125"/><stop stop-opacity="1" stop-color="rgb(29.79126%, 63.61084%, 88.119507%)" offset="0.078125"/><stop stop-opacity="1" stop-color="rgb(29.748535%, 63.285828%, 87.815857%)" offset="0.0859375"/><stop stop-opacity="1" stop-color="rgb(29.704285%, 62.960815%, 87.512207%)" offset="0.09375"/><stop stop-opacity="1" stop-color="rgb(29.66156%, 62.635803%, 87.210083%)" offset="0.101562"/><stop stop-opacity="1" stop-color="rgb(29.618835%, 62.310791%, 86.906433%)" offset="0.109375"/><stop stop-opacity="1" stop-color="rgb(29.576111%, 61.985779%, 86.602783%)" offset="0.117188"/><stop stop-opacity="1" stop-color="rgb(29.533386%, 61.660767%, 86.300659%)" offset="0.125"/><stop stop-opacity="1" stop-color="rgb(29.490662%, 61.335754%, 85.997009%)" offset="0.132812"/><stop stop-opacity="1" stop-color="rgb(29.446411%, 61.010742%, 85.693359%)" offset="0.140625"/><stop stop-opacity="1" stop-color="rgb(29.403687%, 60.68573%, 85.391235%)" offset="0.148438"/><stop stop-opacity="1" stop-color="rgb(29.360962%, 60.360718%, 85.087585%)" offset="0.15625"/><stop stop-opacity="1" stop-color="rgb(29.318237%, 60.035706%, 84.783936%)" offset="0.164062"/><stop stop-opacity="1" stop-color="rgb(29.275513%, 59.710693%, 84.481812%)" offset="0.171875"/><stop stop-opacity="1" stop-color="rgb(29.232788%, 59.385681%, 84.178162%)" offset="0.179688"/><stop stop-opacity="1" stop-color="rgb(29.190063%, 59.060669%, 83.876038%)" offset="0.1875"/><stop stop-opacity="1" stop-color="rgb(29.145813%, 58.735657%, 83.572388%)" offset="0.195312"/><stop stop-opacity="1" stop-color="rgb(29.103088%, 58.410645%, 83.268738%)" offset="0.203125"/><stop stop-opacity="1" stop-color="rgb(29.060364%, 58.085632%, 82.966614%)" offset="0.210938"/><stop stop-opacity="1" stop-color="rgb(29.017639%, 57.76062%, 82.662964%)" offset="0.21875"/><stop stop-opacity="1" stop-color="rgb(28.974915%, 57.435608%, 82.359314%)" offset="0.226562"/><stop stop-opacity="1" stop-color="rgb(28.93219%, 57.110596%, 82.05719%)" offset="0.234375"/><stop stop-opacity="1" stop-color="rgb(28.887939%, 56.785583%, 81.75354%)" offset="0.242188"/><stop stop-opacity="1" stop-color="rgb(28.845215%, 56.460571%, 81.44989%)" offset="0.25"/><stop stop-opacity="1" stop-color="rgb(28.80249%, 56.135559%, 81.147766%)" offset="0.257812"/><stop stop-opacity="1" stop-color="rgb(28.759766%, 55.810547%, 80.844116%)" offset="0.265625"/><stop stop-opacity="1" stop-color="rgb(28.717041%, 55.485535%, 80.540466%)" offset="0.273438"/><stop stop-opacity="1" stop-color="rgb(28.674316%, 55.160522%, 80.238342%)" offset="0.28125"/><stop stop-opacity="1" stop-color="rgb(28.630066%, 54.83551%, 79.934692%)" offset="0.289062"/><stop stop-opacity="1" stop-color="rgb(28.587341%, 54.510498%, 79.631042%)" offset="0.296875"/><stop stop-opacity="1" stop-color="rgb(28.544617%, 54.185486%, 79.328918%)" offset="0.304688"/><stop stop-opacity="1" stop-color="rgb(28.501892%, 53.860474%, 79.025269%)" offset="0.3125"/><stop stop-opacity="1" stop-color="rgb(28.459167%, 53.535461%, 78.721619%)" offset="0.320312"/><stop stop-opacity="1" stop-color="rgb(28.416443%, 53.210449%, 78.419495%)" offset="0.328125"/><stop stop-opacity="1" stop-color="rgb(28.372192%, 52.885437%, 78.115845%)" offset="0.335938"/><stop stop-opacity="1" stop-color="rgb(28.329468%, 52.560425%, 77.812195%)" offset="0.34375"/><stop stop-opacity="1" stop-color="rgb(28.286743%, 52.235413%, 77.510071%)" offset="0.351562"/><stop stop-opacity="1" stop-color="rgb(28.244019%, 51.9104%, 77.206421%)" offset="0.359375"/><stop stop-opacity="1" stop-color="rgb(28.201294%, 51.585388%, 76.902771%)" offset="0.367188"/><stop stop-opacity="1" stop-color="rgb(28.158569%, 51.260376%, 76.600647%)" offset="0.375"/><stop stop-opacity="1" stop-color="rgb(28.115845%, 50.935364%, 76.296997%)" offset="0.382812"/><stop stop-opacity="1" stop-color="rgb(28.071594%, 50.610352%, 75.993347%)" offset="0.390625"/><stop stop-opacity="1" stop-color="rgb(28.02887%, 50.285339%, 75.691223%)" offset="0.398438"/><stop stop-opacity="1" stop-color="rgb(27.986145%, 49.960327%, 75.387573%)" offset="0.40625"/><stop stop-opacity="1" stop-color="rgb(27.94342%, 49.635315%, 75.083923%)" offset="0.414062"/><stop stop-opacity="1" stop-color="rgb(27.900696%, 49.310303%, 74.781799%)" offset="0.421875"/><stop stop-opacity="1" stop-color="rgb(27.857971%, 48.985291%, 74.478149%)" offset="0.429688"/><stop stop-opacity="1" stop-color="rgb(27.813721%, 48.660278%, 74.176025%)" offset="0.4375"/><stop stop-opacity="1" stop-color="rgb(27.770996%, 48.335266%, 73.872375%)" offset="0.445312"/><stop stop-opacity="1" stop-color="rgb(27.728271%, 48.010254%, 73.568726%)" offset="0.453125"/><stop stop-opacity="1" stop-color="rgb(27.685547%, 47.685242%, 73.266602%)" offset="0.460938"/><stop stop-opacity="1" stop-color="rgb(27.642822%, 47.360229%, 72.962952%)" offset="0.46875"/><stop stop-opacity="1" stop-color="rgb(27.600098%, 47.036743%, 72.659302%)" offset="0.476562"/><stop stop-opacity="1" stop-color="rgb(27.555847%, 46.711731%, 72.357178%)" offset="0.484375"/><stop stop-opacity="1" stop-color="rgb(27.513123%, 46.386719%, 72.053528%)" offset="0.492188"/><stop stop-opacity="1" stop-color="rgb(27.470398%, 46.061707%, 71.749878%)" offset="0.5"/><stop stop-opacity="1" stop-color="rgb(27.427673%, 45.736694%, 71.447754%)" offset="0.507812"/><stop stop-opacity="1" stop-color="rgb(27.384949%, 45.411682%, 71.144104%)" offset="0.515625"/><stop stop-opacity="1" stop-color="rgb(27.342224%, 45.08667%, 70.840454%)" offset="0.523438"/><stop stop-opacity="1" stop-color="rgb(27.297974%, 44.761658%, 70.53833%)" offset="0.53125"/><stop stop-opacity="1" stop-color="rgb(27.255249%, 44.436646%, 70.23468%)" offset="0.539062"/><stop stop-opacity="1" stop-color="rgb(27.212524%, 44.111633%, 69.93103%)" offset="0.546875"/><stop stop-opacity="1" stop-color="rgb(27.1698%, 43.786621%, 69.628906%)" offset="0.554688"/><stop stop-opacity="1" stop-color="rgb(27.127075%, 43.461609%, 69.325256%)" offset="0.5625"/><stop stop-opacity="1" stop-color="rgb(27.084351%, 43.136597%, 69.021606%)" offset="0.570312"/><stop stop-opacity="1" stop-color="rgb(27.041626%, 42.811584%, 68.719482%)" offset="0.578125"/><stop stop-opacity="1" stop-color="rgb(26.997375%, 42.486572%, 68.415833%)" offset="0.585938"/><stop stop-opacity="1" stop-color="rgb(26.954651%, 42.16156%, 68.112183%)" offset="0.59375"/><stop stop-opacity="1" stop-color="rgb(26.911926%, 41.836548%, 67.810059%)" offset="0.601562"/><stop stop-opacity="1" stop-color="rgb(26.869202%, 41.511536%, 67.506409%)" offset="0.609375"/><stop stop-opacity="1" stop-color="rgb(26.826477%, 41.186523%, 67.202759%)" offset="0.617188"/><stop stop-opacity="1" stop-color="rgb(26.783752%, 40.861511%, 66.900635%)" offset="0.625"/><stop stop-opacity="1" stop-color="rgb(26.739502%, 40.536499%, 66.596985%)" offset="0.632812"/><stop stop-opacity="1" stop-color="rgb(26.696777%, 40.211487%, 66.293335%)" offset="0.640625"/><stop stop-opacity="1" stop-color="rgb(26.654053%, 39.886475%, 65.991211%)" offset="0.648438"/><stop stop-opacity="1" stop-color="rgb(26.611328%, 39.561462%, 65.687561%)" offset="0.65625"/><stop stop-opacity="1" stop-color="rgb(26.568604%, 39.23645%, 65.385437%)" offset="0.664062"/><stop stop-opacity="1" stop-color="rgb(26.525879%, 38.911438%, 65.081787%)" offset="0.671875"/><stop stop-opacity="1" stop-color="rgb(26.481628%, 38.586426%, 64.778137%)" offset="0.679688"/><stop stop-opacity="1" stop-color="rgb(26.438904%, 38.261414%, 64.476013%)" offset="0.6875"/><stop stop-opacity="1" stop-color="rgb(26.396179%, 37.936401%, 64.172363%)" offset="0.695312"/><stop stop-opacity="1" stop-color="rgb(26.353455%, 37.611389%, 63.868713%)" offset="0.703125"/><stop stop-opacity="1" stop-color="rgb(26.31073%, 37.286377%, 63.566589%)" offset="0.710938"/><stop stop-opacity="1" stop-color="rgb(26.268005%, 36.961365%, 63.262939%)" offset="0.71875"/><stop stop-opacity="1" stop-color="rgb(26.223755%, 36.636353%, 62.95929%)" offset="0.726562"/><stop stop-opacity="1" stop-color="rgb(26.18103%, 36.31134%, 62.657166%)" offset="0.734375"/><stop stop-opacity="1" stop-color="rgb(26.138306%, 35.986328%, 62.353516%)" offset="0.742188"/><stop stop-opacity="1" stop-color="rgb(26.095581%, 35.661316%, 62.049866%)" offset="0.75"/><stop stop-opacity="1" stop-color="rgb(26.052856%, 35.336304%, 61.747742%)" offset="0.757812"/><stop stop-opacity="1" stop-color="rgb(26.010132%, 35.011292%, 61.444092%)" offset="0.765625"/><stop stop-opacity="1" stop-color="rgb(25.967407%, 34.686279%, 61.140442%)" offset="0.773438"/><stop stop-opacity="1" stop-color="rgb(25.923157%, 34.361267%, 60.838318%)" offset="0.78125"/><stop stop-opacity="1" stop-color="rgb(25.880432%, 34.036255%, 60.534668%)" offset="0.789062"/><stop stop-opacity="1" stop-color="rgb(25.837708%, 33.711243%, 60.231018%)" offset="0.796875"/><stop stop-opacity="1" stop-color="rgb(25.794983%, 33.38623%, 59.928894%)" offset="0.804688"/><stop stop-opacity="1" stop-color="rgb(25.752258%, 33.061218%, 59.625244%)" offset="0.8125"/><stop stop-opacity="1" stop-color="rgb(25.709534%, 32.736206%, 59.321594%)" offset="0.820312"/><stop stop-opacity="1" stop-color="rgb(25.665283%, 32.411194%, 59.01947%)" offset="0.828125"/><stop stop-opacity="1" stop-color="rgb(25.622559%, 32.086182%, 58.71582%)" offset="0.835938"/><stop stop-opacity="1" stop-color="rgb(25.579834%, 31.761169%, 58.41217%)" offset="0.84375"/><stop stop-opacity="1" stop-color="rgb(25.537109%, 31.436157%, 58.110046%)" offset="0.851562"/><stop stop-opacity="1" stop-color="rgb(25.494385%, 31.111145%, 57.806396%)" offset="0.859375"/><stop stop-opacity="1" stop-color="rgb(25.45166%, 30.786133%, 57.502747%)" offset="0.867188"/><stop stop-opacity="1" stop-color="rgb(25.40741%, 30.461121%, 57.200623%)" offset="0.875"/><stop stop-opacity="1" stop-color="rgb(25.364685%, 30.136108%, 56.896973%)" offset="0.882812"/><stop stop-opacity="1" stop-color="rgb(25.32196%, 29.811096%, 56.593323%)" offset="0.890625"/><stop stop-opacity="1" stop-color="rgb(25.279236%, 29.486084%, 56.291199%)" offset="0.898438"/><stop stop-opacity="1" stop-color="rgb(25.236511%, 29.161072%, 55.987549%)" offset="0.90625"/><stop stop-opacity="1" stop-color="rgb(25.193787%, 28.83606%, 55.685425%)" offset="0.914062"/><stop stop-opacity="1" stop-color="rgb(25.149536%, 28.511047%, 55.381775%)" offset="0.921875"/><stop stop-opacity="1" stop-color="rgb(25.106812%, 28.186035%, 55.078125%)" offset="0.929688"/><stop stop-opacity="1" stop-color="rgb(25.064087%, 27.861023%, 54.776001%)" offset="0.9375"/><stop stop-opacity="1" stop-color="rgb(25.021362%, 27.536011%, 54.472351%)" offset="0.945312"/><stop stop-opacity="1" stop-color="rgb(24.978638%, 27.210999%, 54.168701%)" offset="0.953125"/><stop stop-opacity="1" stop-color="rgb(24.935913%, 26.885986%, 53.866577%)" offset="0.960938"/><stop stop-opacity="1" stop-color="rgb(24.893188%, 26.560974%, 53.562927%)" offset="0.96875"/><stop stop-opacity="1" stop-color="rgb(24.848938%, 26.235962%, 53.259277%)" offset="0.976562"/><stop stop-opacity="1" stop-color="rgb(24.806213%, 25.91095%, 52.957153%)" offset="0.984375"/><stop stop-opacity="1" stop-color="rgb(24.763489%, 25.585938%, 52.653503%)" offset="0.992188"/><stop stop-opacity="1" stop-color="rgb(24.720764%, 25.260925%, 52.349854%)" offset="1"/></linearGradient></defs><g clip-path="url(#3733d57d5a)"><g clip-path="url(#4a6d67ce28)"><path fill="url(#0e71978814)" d="M 37.5 112.5 L 37.5 262.5 L 337.5 262.5 L 337.5 112.5 Z M 37.5 112.5 " fill-rule="nonzero"/></g></g><g fill="#ffffff" fill-opacity="1"><g transform="translate(92.249998, 215.999986)"><g><path d="M 24.40625 0 L 14.8125 0 L 14.8125 -37.8125 L 0.9375 -37.8125 L 0.9375 -45.9375 L 38.3125 -45.9375 L 38.3125 -37.8125 L 24.40625 -37.8125 Z M 24.40625 0 "/></g></g></g><g fill="#ffffff" fill-opacity="1"><g transform="translate(131.4976, 215.999986)"><g><path d="M 25.59375 -20.40625 C 25.40625 -22.570312 24.695312 -24.3125 23.46875 -25.625 C 22.238281 -26.9375 20.644531 -27.59375 18.6875 -27.59375 C 14.4375 -27.59375 12.007812 -25.195312 11.40625 -20.40625 Z M 34.4375 -9.96875 C 33.394531 -6.445312 31.53125 -3.753906 28.84375 -1.890625 C 26.15625 -0.0234375 23.03125 0.90625 19.46875 0.90625 C 13.863281 0.90625 9.582031 -0.640625 6.625 -3.734375 C 3.664062 -6.828125 2.1875 -11.113281 2.1875 -16.59375 C 2.1875 -22.09375 3.578125 -26.523438 6.359375 -29.890625 C 9.140625 -33.253906 13.289062 -34.9375 18.8125 -34.9375 C 23.769531 -34.9375 27.675781 -33.363281 30.53125 -30.21875 C 33.382812 -27.070312 34.8125 -22.394531 34.8125 -16.1875 L 34.8125 -14.59375 L 11.15625 -14.59375 C 11.363281 -11.820312 12.175781 -9.742188 13.59375 -8.359375 C 15.007812 -6.972656 16.9375 -6.28125 19.375 -6.28125 C 20.832031 -6.28125 22.09375 -6.617188 23.15625 -7.296875 C 24.21875 -7.972656 24.90625 -8.863281 25.21875 -9.96875 Z M 34.4375 -9.96875 "/></g></g></g><g fill="#ffffff" fill-opacity="1"><g transform="translate(168.182858, 215.999986)"><g><path d="M 23.1875 -24.5 C 25.625 -24.5 27.425781 -25.066406 28.59375 -26.203125 C 29.757812 -27.335938 30.34375 -29.09375 30.34375 -31.46875 C 30.34375 -33.863281 29.679688 -35.554688 28.359375 -36.546875 C 27.035156 -37.535156 25.070312 -38.03125 22.46875 -38.03125 L 14.28125 -38.03125 L 14.28125 -24.5 Z M 14.28125 0 L 4.6875 0 L 4.6875 -45.9375 L 25.65625 -45.9375 C 30.03125 -45.9375 33.503906 -44.625 36.078125 -42 C 38.648438 -39.375 39.9375 -35.78125 39.9375 -31.21875 C 39.9375 -27.28125 38.675781 -23.851562 36.15625 -20.9375 C 33.632812 -18.019531 30.007812 -16.5625 25.28125 -16.5625 L 14.28125 -16.5625 Z M 14.28125 0 "/></g></g></g><g fill="#ffffff" fill-opacity="1"><g transform="translate(210.461531, 215.999986)"><g><path d="M 23.90625 -16.5 C 22.800781 -15.726562 20.65625 -15.113281 17.46875 -14.65625 C 14.800781 -14.28125 13.054688 -13.679688 12.234375 -12.859375 C 11.410156 -12.035156 11 -10.945312 11 -9.59375 C 11 -8.238281 11.4375 -7.21875 12.3125 -6.53125 C 13.1875 -5.84375 14.226562 -5.5 15.4375 -5.5 C 17.726562 -5.5 19.710938 -6.140625 21.390625 -7.421875 C 23.066406 -8.703125 23.90625 -10.300781 23.90625 -12.21875 Z M 32.65625 -6.65625 C 32.65625 -5.09375 32.800781 -3.867188 33.09375 -2.984375 C 33.382812 -2.097656 33.894531 -1.550781 34.625 -1.34375 L 34.625 0 L 25.03125 0 C 24.613281 -1.144531 24.320312 -2.488281 24.15625 -4.03125 C 21.238281 -0.738281 17.445312 0.90625 12.78125 0.90625 C 9.550781 0.90625 6.953125 0.0078125 4.984375 -1.78125 C 3.015625 -3.570312 2.03125 -5.988281 2.03125 -9.03125 C 2.03125 -11.945312 2.890625 -14.351562 4.609375 -16.25 C 6.328125 -18.144531 8.894531 -19.34375 12.3125 -19.84375 L 20.6875 -21.0625 C 21.832031 -21.226562 22.65625 -21.546875 23.15625 -22.015625 C 23.65625 -22.484375 23.90625 -23.082031 23.90625 -23.8125 C 23.90625 -25.125 23.425781 -26.117188 22.46875 -26.796875 C 21.507812 -27.472656 20.039062 -27.8125 18.0625 -27.8125 C 16 -27.8125 14.492188 -27.4375 13.546875 -26.6875 C 12.597656 -25.9375 12.007812 -24.71875 11.78125 -23.03125 L 3.125 -23.03125 C 3.5625 -27.175781 4.972656 -30.195312 7.359375 -32.09375 C 9.742188 -33.988281 13.550781 -34.9375 18.78125 -34.9375 C 22.988281 -34.9375 26.351562 -34.09375 28.875 -32.40625 C 31.394531 -30.71875 32.65625 -28.28125 32.65625 -25.09375 Z M 32.65625 -6.65625 "/></g></g></g><g fill="#ffffff" fill-opacity="1"><g transform="translate(247.021797, 215.999986)"><g><path d="M 23.03125 -0.5625 C 21.34375 4.269531 20.070312 7.488281 19.21875 9.09375 C 18.363281 10.695312 17.320312 11.867188 16.09375 12.609375 C 14.863281 13.347656 12.789062 13.71875 9.875 13.71875 C 8.375 13.71875 7.019531 13.644531 5.8125 13.5 L 5.8125 6.40625 C 6.457031 6.488281 7.269531 6.53125 8.25 6.53125 C 9.539062 6.53125 10.597656 6.257812 11.421875 5.71875 C 12.242188 5.175781 12.9375 3.757812 13.5 1.46875 L 0.875 -34.0625 L 10.875 -34.0625 L 18.15625 -8.96875 L 18.3125 -8.96875 L 25.28125 -34.0625 L 34.75 -34.0625 Z M 23.03125 -0.5625 "/></g></g></g></svg>